# xmcd
#
# Track frame offsets:
#	150
#	11664
#	27522
#	42242
#	58486
#	79383
#	98460
#	111910
#	128863
#	147720
#	162794
#	174200
#	194333
#	215726
#	231797
#	246353
#	260580
#	278169
#	293339
#	308447
#
# Disc length: 4316 seconds
# Revision: 1
# Processed by: cddbd v1.5.2PL0 Copyright (c) Steve Scherf et al.
# Submitted via: dBpowerAMP V12.0
#
DISCID=2310da14
DTITLE=Lucinda Williams - Lucinda Williams [CD2 of 2)
DYEAR=2014
DGENRE=Folk
TTITLE0=I Just Wanted to See You So Bad
TTITLE1=Big Red Sun Blues
TTITLE2=Am I Too Blue
TTITLE3=Crescent City
TTITLE4=The Night's Too Long
TTITLE5=Something About What Happens When We Talk
TTITLE6=Factory Blues
TTITLE7=Happy Woman Blues
TTITLE8=Abandoned
TTITLE9=Wild and Blue
TTITLE10=Passionate Kisses
TTITLE11=Changed the Locks
TTITLE12=Nothing in Rambling
TTITLE13=Sundays
TTITLE14=Nothing in Rambling (Live)
TTITLE15=Disgusted (Live)
TTITLE16=Side of the Road (Live)
TTITLE17=Goin’ Back Home (Live)
TTITLE18=Something About What Happens When We Talk (Live)
TTITLE19=Sundays (Live)
EXTD=
EXTT0=
EXTT1=
EXTT2=
EXTT3=
EXTT4=
EXTT5=
EXTT6=
EXTT7=
EXTT8=
EXTT9=
EXTT10=
EXTT11=
EXTT12=
EXTT13=
EXTT14=
EXTT15=
EXTT16=
EXTT17=
EXTT18=
EXTT19=
PLAYORDER=
